<svg xmlns="http://www.w3.org/2000/svg" viewBox="0 0 24 24" width="24" height="24" color="#ffffff" fill="none">
    <path d="M7.45331 4.54593C7.84288 3.51817 7.76562 3.65706 8.52737 2.89531C8.89508 2.5276 9.07894 2.34374 9.38522 2.21735C9.69149 2.09096 10.0933 2.09096 10.897 2.09096H13.1028C13.9065 2.09096 14.3083 2.09096 14.6146 2.21735C14.9209 2.34374 15.1047 2.5276 15.4725 2.89531C16.2342 3.65706 16.157 3.51817 16.5465 4.54593C16.7416 5.06059 17.027 5.48529 17.5147 5.72918C17.6534 5.79854 17.7963 5.86064 17.9427 5.9155C18.6657 6.18641 19.1678 6.18181 19.9322 6.18181C20.6725 6.18181 21.0426 6.18181 21.3254 6.46453C21.6081 6.74725 21.6081 7.11741 21.6081 7.85773V18.1354C21.6081 18.8757 21.6081 19.2459 21.3254 19.5286C21.0426 19.8113 20.6725 19.8113 19.9322 19.8113H4.06764C3.32732 19.8113 2.95716 19.8113 2.67444 19.5286C2.39171 19.2459 2.39171 18.8757 2.39171 18.1354V7.85773C2.39171 7.11741 2.39171 6.74725 2.67444 6.46453C2.95716 6.18181 3.32732 6.18181 4.06764 6.18181C4.83204 6.18181 5.33413 6.18641 6.05711 5.9155C6.20352 5.86064 6.34645 5.79854 6.48512 5.72918C6.97282 5.48529 7.25827 5.06059 7.45331 4.54593Z" stroke="currentColor" stroke-width="1.5" stroke-linecap="round" stroke-linejoin="round" />
    <path d="M15.5 12.5C15.5 14.433 13.933 16 12 16C10.067 16 8.5 14.433 8.5 12.5C8.5 10.567 10.067 9 12 9C13.933 9 15.5 10.567 15.5 12.5Z" stroke="currentColor" stroke-width="1.5" stroke-linejoin="round" />
    <path d="M16.5 9.5H16.505" stroke="currentColor" stroke-width="1.5" stroke-linecap="round" stroke-linejoin="round" />
</svg>
